<svg id="Layer_1" data-name="Layer 1" xmlns="http://www.w3.org/2000/svg" viewBox="0 0 960 560"><defs><style>.cls-1{fill:none;stroke:#000;stroke-miterlimit:10;stroke-width:0.25px;}</style></defs><title>VAXT-twerk</title><line class="cls-1" x1="218.78" y1="175.63" x2="697.08" y2="175.63"/><line class="cls-1" x1="218.78" y1="190.31" x2="697.08" y2="190.31"/><line class="cls-1" x1="218.78" y1="204.99" x2="697.08" y2="204.99"/><line class="cls-1" x1="218.78" y1="219.66" x2="697.08" y2="219.66"/><line class="cls-1" x1="218.78" y1="234.34" x2="697.08" y2="234.34"/><line class="cls-1" x1="218.78" y1="249.01" x2="697.08" y2="249.01"/><line class="cls-1" x1="218.78" y1="263.69" x2="697.08" y2="263.69"/><line class="cls-1" x1="218.78" y1="278.37" x2="697.08" y2="278.37"/><line class="cls-1" x1="218.78" y1="293.04" x2="697.08" y2="293.04"/><line class="cls-1" x1="218.78" y1="307.72" x2="697.08" y2="307.72"/><line class="cls-1" x1="218.78" y1="322.4" x2="697.08" y2="322.4"/><line class="cls-1" x1="218.78" y1="337.07" x2="697.08" y2="337.07"/><line class="cls-1" x1="218.78" y1="351.75" x2="697.08" y2="351.75"/><line class="cls-1" x1="218.78" y1="366.42" x2="697.08" y2="366.42"/><line class="cls-1" x1="-12.5" y1="148.47" x2="31.9" y2="148.47"/><line class="cls-1" x1="-12.5" y1="192.86" x2="31.9" y2="192.86"/><line class="cls-1" x1="-12.5" y1="106.72" x2="31.9" y2="106.72"/><line class="cls-1" x1="-12.5" y1="58.72" x2="31.9" y2="58.72"/><line class="cls-1" x1="-12.5" y1="23.72" x2="31.9" y2="23.72"/><line class="cls-1" x1="-12.5" y1="235.61" x2="31.9" y2="235.61"/><line class="cls-1" x1="-12.5" y1="278.37" x2="31.9" y2="278.37"/><line class="cls-1" x1="-12.5" y1="293.04" x2="31.9" y2="293.04"/><line class="cls-1" x1="-12.5" y1="354.94" x2="31.9" y2="354.94"/><line class="cls-1" x1="-12.5" y1="404.07" x2="31.9" y2="404.07"/><line class="cls-1" x1="-12.5" y1="449.07" x2="31.9" y2="449.07"/><line class="cls-1" x1="-12.5" y1="487.07" x2="31.9" y2="487.07"/><line class="cls-1" x1="-12.5" y1="536.07" x2="31.9" y2="536.07"/><line class="cls-1" x1="923.87" y1="148.47" x2="972.5" y2="148.47"/><line class="cls-1" x1="923.87" y1="192.86" x2="972.5" y2="192.86"/><line class="cls-1" x1="923.87" y1="106.72" x2="972.5" y2="106.72"/><line class="cls-1" x1="923.87" y1="58.72" x2="972.5" y2="58.72"/><line class="cls-1" x1="923.87" y1="24.72" x2="972.5" y2="24.72"/><line class="cls-1" x1="923.87" y1="235.61" x2="972.5" y2="235.61"/><line class="cls-1" x1="923.87" y1="278.37" x2="972.5" y2="278.37"/><line class="cls-1" x1="923.87" y1="293.04" x2="972.5" y2="293.04"/><line class="cls-1" x1="923.87" y1="354.94" x2="972.5" y2="354.94"/><line class="cls-1" x1="923.87" y1="404.07" x2="972.5" y2="404.07"/><line class="cls-1" x1="923.87" y1="449.07" x2="972.5" y2="449.07"/><line class="cls-1" x1="923.87" y1="487.07" x2="972.5" y2="487.07"/><line class="cls-1" x1="923.87" y1="537.07" x2="972.5" y2="537.07"/><line class="cls-1" x1="35.54" y1="-17.07" x2="217.49" y2="175.63"/><line class="cls-1" x1="35.54" y1="24.4" x2="217.49" y2="190.31"/><line class="cls-1" x1="35.54" y1="58.86" x2="217.49" y2="204.99"/><line class="cls-1" x1="35.54" y1="106.72" x2="217.49" y2="219.66"/><line class="cls-1" x1="35.54" y1="148.83" x2="217.49" y2="234.34"/><line class="cls-1" x1="35.54" y1="192.86" x2="217.49" y2="249.01"/><line class="cls-1" x1="35.54" y1="235.61" x2="217.49" y2="263.69"/><line class="cls-1" x1="35.54" y1="278.37" x2="217.49" y2="278.37"/><line class="cls-1" x1="35.54" y1="293.04" x2="217.49" y2="293.04"/><line class="cls-1" x1="35.54" y1="354.94" x2="217.49" y2="307.72"/><line class="cls-1" x1="35.54" y1="404.07" x2="217.49" y2="322.4"/><line class="cls-1" x1="35.54" y1="448.74" x2="217.49" y2="337.07"/><line class="cls-1" x1="35.54" y1="487.02" x2="217.49" y2="351.75"/><line class="cls-1" x1="35.54" y1="536.16" x2="217.49" y2="366.42"/><line class="cls-1" x1="920.57" y1="-17.07" x2="699.12" y2="175.63"/><line class="cls-1" x1="920.57" y1="24.4" x2="699.12" y2="190.31"/><line class="cls-1" x1="920.57" y1="58.86" x2="699.12" y2="204.99"/><line class="cls-1" x1="920.57" y1="106.72" x2="699.12" y2="219.66"/><line class="cls-1" x1="920.57" y1="148.83" x2="699.12" y2="234.34"/><line class="cls-1" x1="920.57" y1="192.86" x2="699.12" y2="249.01"/><line class="cls-1" x1="920.57" y1="235.61" x2="699.12" y2="263.69"/><line class="cls-1" x1="920.57" y1="278.37" x2="699.12" y2="278.37"/><line class="cls-1" x1="920.57" y1="293.04" x2="699.12" y2="293.04"/><line class="cls-1" x1="920.57" y1="354.94" x2="699.12" y2="307.72"/><line class="cls-1" x1="920.57" y1="404.07" x2="699.12" y2="322.4"/><line class="cls-1" x1="920.57" y1="448.74" x2="699.12" y2="337.07"/><line class="cls-1" x1="920.57" y1="487.02" x2="699.12" y2="351.75"/><line class="cls-1" x1="920.57" y1="536.16" x2="699.12" y2="366.42"/></svg>